<?xml version="1.0" encoding="UTF-8"?><svg id="Layer_2" xmlns="http://www.w3.org/2000/svg" viewBox="0 0 28 28"><defs><style>.cls-1{fill:#fd8f23;stroke-width:0px;}</style></defs><g id="Layer_1-2"><path class="cls-1" d="m27.91,8.22c-.12-2.25-.62-4.25-2.25-5.88S22.03.22,19.78.09C17.47-.03,10.53-.03,8.22.09c-2.25.12-4.19.62-5.88,2.25C.72,3.97.22,5.97.09,8.22-.03,10.53-.03,17.47.09,19.78c.12,2.25.62,4.19,2.25,5.88,1.69,1.62,3.62,2.12,5.88,2.25,2.31.12,9.25.12,11.56,0,2.25-.12,4.25-.62,5.88-2.25,1.62-1.69,2.12-3.62,2.25-5.88.12-2.31.12-9.25,0-11.56Zm-3,14c-.44,1.25-1.44,2.19-2.62,2.69-1.88.75-6.25.56-8.25.56s-6.44.19-8.25-.56c-1.25-.5-2.19-1.44-2.69-2.69-.75-1.81-.56-6.19-.56-8.25s-.19-6.38.56-8.25c.5-1.19,1.44-2.12,2.69-2.62,1.81-.75,6.19-.56,8.25-.56s6.38-.19,8.25.56c1.19.44,2.12,1.44,2.62,2.62.75,1.88.56,6.25.56,8.25s.19,6.44-.56,8.25Z"/><path class="cls-1" d="m14.03,6.78c-4,0-7.19,3.25-7.19,7.19s3.19,7.19,7.19,7.19,7.19-3.19,7.19-7.19-3.25-7.19-7.19-7.19Zm0,11.88c-2.56,0-4.69-2.06-4.69-4.69s2.06-4.62,4.69-4.62,4.62,2.06,4.62,4.62-2.06,4.69-4.62,4.69Z"/><circle class="cls-1" cx="21.47" cy="6.53" r="1.69"/></g></svg>